<svg width="716" height="449" fill="none" xmlns="http://www.w3.org/2000/svg"><path d="M677.728 314.596c-5.195 18.388-19.066 33.407-39.747 44.814-20.683 11.408-48.159 19.192-80.522 23.11-64.724 7.837-148.942.205-237.306-24.763-88.365-24.969-164.123-62.54-215.175-103.091-25.526-20.276-44.865-41.288-56.52-61.833-11.652-20.544-15.612-40.601-10.416-58.988 5.195-18.387 19.066-33.407 39.747-44.814 20.683-11.407 48.159-19.192 80.521-23.11 64.725-7.837 148.943-.205 237.307 24.763 88.365 24.969 164.123 62.541 215.175 103.091 25.526 20.276 44.865 41.289 56.519 61.833 11.653 20.544 15.613 40.601 10.417 58.988z" stroke="#F33" stroke-width=".5"/></svg>