<svg width="34" height="34" fill="none" xmlns="http://www.w3.org/2000/svg"><path fill="#F33" d="M0 0h34v34H0z"/><g clip-path="url(#clip0)"><path d="M11.476 26.594a1.064 1.064 0 01-1.036-1.3l1.287-5.668L7.364 15.8a1.062 1.062 0 01.602-1.86l5.774-.525 2.282-5.341a1.063 1.063 0 011.955-.001l2.283 5.342 5.773.525a1.062 1.062 0 01.604 1.86l-4.364 3.826 1.287 5.667a1.062 1.062 0 01-1.582 1.149L17 23.466l-4.979 2.977c-.168.1-.355.151-.545.151zM17 22.184c.19 0 .377.052.545.152l4.698 2.81-1.214-5.35c-.087-.38.043-.778.337-1.035l4.12-3.614-5.451-.495a1.062 1.062 0 01-.883-.644L17 8.967l-2.154 5.042c-.152.359-.49.606-.881.641l-5.452.495 4.12 3.614c.295.258.424.655.337 1.037l-1.214 5.349 4.699-2.81c.168-.1.356-.15.545-.15zm-3.304-8.665l-.001.001v-.001zm6.606-.003l.001.002v-.002z" fill="#fff"/></g><defs><clipPath id="clip0"><path fill="#fff" transform="translate(7 7)" d="M0 0h20v20H0z"/></clipPath></defs></svg>