<svg width="20" height="20" fill="none" xmlns="http://www.w3.org/2000/svg"><path d="M4.477 19.594a1.063 1.063 0 01-1.036-1.3l1.287-5.668L.364 8.8a1.062 1.062 0 01.603-1.86l5.773-.525 2.283-5.341a1.063 1.063 0 011.955-.001l2.282 5.342 5.773.525a1.062 1.062 0 01.604 1.86l-4.363 3.826 1.286 5.667a1.063 1.063 0 01-1.581 1.149L10 16.466l-4.978 2.977c-.169.1-.356.151-.545.151zM10 15.184c.19 0 .377.052.545.152l4.699 2.81-1.215-5.35c-.086-.38.043-.778.337-1.035l4.12-3.614-5.45-.495a1.062 1.062 0 01-.884-.644L10 1.967 7.846 7.009c-.152.359-.49.606-.88.642l-5.453.495 4.12 3.613c.295.258.425.655.337 1.037l-1.213 5.349 4.698-2.81c.168-.1.356-.15.545-.15zM6.696 6.52v.001-.001zm6.607-.003z" fill="#fff"/></svg>