<svg width="18" height="18" fill="none" xmlns="http://www.w3.org/2000/svg"><path d="M9 0a4.751 4.751 0 00-4.746 4.746A4.751 4.751 0 009 9.492a4.751 4.751 0 004.746-4.746A4.751 4.751 0 009 0zm0 8.438a3.696 3.696 0 01-3.691-3.692A3.696 3.696 0 019 1.055a3.696 3.696 0 013.691 3.691A3.696 3.696 0 019 8.437zm5.905 4.155a6.766 6.766 0 00-4.85-2.046h-2.11a6.766 6.766 0 00-4.85 2.046 6.917 6.917 0 00-2.005 4.88c0 .29.236.527.527.527h14.766a.527.527 0 00.527-.527 6.917 6.917 0 00-2.005-4.88zM2.168 16.945c.264-2.991 2.754-5.343 5.777-5.343h2.11c3.023 0 5.513 2.352 5.777 5.343H2.168z" fill="#fff"/></svg>