<svg width="40" height="40" fill="none" xmlns="http://www.w3.org/2000/svg"><path d="M38.242 17.068h-.585V9.06a3.715 3.715 0 00-3.711-3.711H17.854L6.997 2.247l-.01-.002-.009-.003-.02-.004-.03-.006-.027-.004a.556.556 0 00-.031-.003h-.06l-.024.002a.526.526 0 00-.033.003l-.023.004a.536.536 0 00-.033.007l-.021.006a.648.648 0 00-.086.031l-.018.01a.53.53 0 00-.032.017l-.017.01a.536.536 0 00-.03.02l-.016.012a.57.57 0 00-.028.023l-.015.014a.629.629 0 00-.025.025.593.593 0 00-.036.043c-.006.006-.01.013-.015.02a.541.541 0 00-.018.026l-.014.023a.54.54 0 00-.014.027l-.013.026a.522.522 0 00-.01.027.176.176 0 00-.01.03l-.007.018-.002.01-.003.009-.67 2.68H3.71A3.715 3.715 0 000 9.048v20.323a.587.587 0 001.172 0v-17.61a3.697 3.697 0 002.54 1.009h30.236a2.542 2.542 0 012.537 2.539v4.102h-6.447a.57.57 0 00-.106.01l-.008.001a.566.566 0 00-.046.011l-.01.003-.039.014-.015.005-.031.015-.02.01c-.009.004-.016.01-.024.014l-.026.016c-.006.003-.011.008-.017.012l-.03.022-.011.01-.03.028-.017.018-.022.025a.568.568 0 00-.034.046l-3.126 4.688a.578.578 0 00-.069.144l-.004.012a.556.556 0 00-.011.044l-.003.012a.53.53 0 00-.006.039l-.002.017-.002.032-.001.025.001.024c0 .012 0 .023.002.034l.002.016a.558.558 0 00.006.04c0 .004.002.008.003.011l.01.044.005.013c.005.013.009.027.015.04.014.036.033.07.055.104l3.124 4.687a.592.592 0 00.042.054l.014.016a.656.656 0 00.086.076c.005.004.01.009.016.012a.603.603 0 00.055.033l.014.007a.542.542 0 00.11.042l.019.005a.548.548 0 00.048.009l.018.002c.02.003.04.004.061.004h6.451v4.102c0 1.4-1.14 2.54-2.54 2.54H3.713a2.542 2.542 0 01-2.54-2.54v-2.344a.587.587 0 00-1.172 0v2.344l.001.019a3.715 3.715 0 003.71 3.693h30.235a3.715 3.715 0 003.71-3.71v-4.104h.587A1.76 1.76 0 0040 28.201v-9.376a1.76 1.76 0 00-1.758-1.757zM7.258 3.54l10.339 2.954h.001l6.93 1.98H6.025L7.258 3.54zm29.227 9.067a3.696 3.696 0 00-2.54-1.008H3.712c-1.4 0-2.539-1.14-2.539-2.54 0-1.4 1.14-2.538 2.54-2.538h1.593l-.488 1.953H3.71a.586.586 0 000 1.172h29.453a.586.586 0 000-1.172h-4.37L21.955 6.52h11.99c1.4 0 2.54 1.14 2.54 2.54v3.547zm2.343 15.594a.586.586 0 01-.586.585h-7.89l-2.734-4.1 2.734-4.103h7.915c.196-.004.385-.039.56-.101v7.719zm-.586-8.79h-.585V18.24h.585a.586.586 0 010 1.17z" fill="#2F2F2F"/><path d="M32.383 22.537a2.15 2.15 0 00-2.149 2.149 2.15 2.15 0 002.149 2.148 2.15 2.15 0 002.148-2.148 2.15 2.15 0 00-2.148-2.149zm0 3.125a.978.978 0 010-1.953.978.978 0 010 1.953z" fill="#2F2F2F"/></svg>