<svg width="687" height="431" fill="none" xmlns="http://www.w3.org/2000/svg"><path d="M650.099 301.773c-4.983 17.635-18.286 32.04-38.123 42.982-19.838 10.942-46.193 18.408-77.236 22.167-62.085 7.517-142.87.197-227.632-23.754-84.763-23.951-157.433-59.991-206.403-98.888-24.485-19.449-43.035-39.604-54.213-59.31-11.178-19.705-14.975-38.942-9.992-56.577 4.983-17.634 18.286-32.04 38.123-42.981 19.838-10.942 46.193-18.409 77.236-22.167 62.085-7.518 142.87-.197 227.633 23.754 84.762 23.951 157.432 59.99 206.402 98.888 24.485 19.449 43.035 39.604 54.213 59.31 11.178 19.705 14.975 38.942 9.992 56.576z" stroke="#F33" stroke-width=".5"/></svg>